<svg version="1.1" id="Layer_1" xmlns="http://www.w3.org/2000/svg" x="0" y="0" viewBox="0 0 180 180" style="enable-background:new 0 0 180 180" xml:space="preserve"><style>.st1{fill:#45525b}.st2{fill:#f5f0d9}.st3{fill:#657077}.st4{fill:#fff}</style><path d="M90 25.4c-35.7 0-64.6 28.9-64.6 64.6 0 35.7 28.9 64.6 64.6 64.6 35.7 0 64.6-28.9 64.6-64.6 0-35.7-28.9-64.6-64.6-64.6z" style="fill:#f2f2f2" id="XMLID_602_"/><path class="st1" d="M65.7 47.3H55.1c-.2 0-.4.2-.4.4s.2.4.4.4h10.6c.2 0 .4-.2.4-.4 0-.3-.2-.4-.4-.4zM64.8 51.1h-1.7c-.2 0-.4.2-.4.4s.2.4.4.4h1.7c.2 0 .4-.2.4-.4s-.2-.4-.4-.4zM59.9 51.1h-6.5c-.2 0-.4.2-.4.4s.2.4.4.4h6.5c.2 0 .4-.2.4-.4s-.2-.4-.4-.4zM67.8 53.6H60c-.2 0-.4.2-.4.4s.2.4.4.4h7.8c.2 0 .4-.2.4-.4s-.2-.4-.4-.4zM49.4 58.8h-.9c-.2 0-.4.2-.4.4s.2.4.4.4h.9c.2 0 .4-.2.4-.4s-.1-.4-.4-.4zM54.1 58.8h-2.3c-.2 0-.4.2-.4.4s.2.4.4.4h2.3c.2 0 .4-.2.4-.4-.1-.2-.2-.4-.4-.4zM63.3 58.8H61c-.2 0-.4.2-.4.4s.2.4.4.4h2.3c.2 0 .4-.2.4-.4-.1-.2-.2-.4-.4-.4zM58.7 58.8h-2.3c-.2 0-.4.2-.4.4s.2.4.4.4h2.3c.2 0 .4-.2.4-.4-.1-.2-.2-.4-.4-.4z"/><g><path class="st1" d="M50.7 53.7h-2.9c-.2 0-.4.2-.4.4s.2.4.4.4h2.9c.2 0 .4-.2.4-.4s-.1-.4-.4-.4z"/><path class="st1" d="M49.2 52c-.2 0-.4.2-.4.4v3.2c0 .2.2.4.4.4s.4-.2.4-.4v-3.2c0-.2-.1-.4-.4-.4z"/></g><g><path class="st1" d="M46.8 103.8h-6.3c-.2 0-.4.2-.4.4s.2.4.4.4h6.3c.2 0 .4-.2.4-.4s-.1-.4-.4-.4zM46.3 108h-1c-.2 0-.4.2-.4.4s.2.4.4.4h1c.2 0 .4-.2.4-.4s-.2-.4-.4-.4zM43.4 108h-3.8c-.2 0-.4.2-.4.4s.2.4.4.4h3.8c.2 0 .4-.2.4-.4s-.2-.4-.4-.4zM48.1 110.7h-4.6c-.2 0-.4.2-.4.4s.2.4.4.4h4.6c.2 0 .4-.2.4-.4 0-.3-.2-.4-.4-.4zM40.8 116.2h-2.3c-.2 0-.4.2-.4.4s.2.4.4.4h2.3c.2 0 .4-.2.4-.4s-.2-.4-.4-.4zM45.4 116.2h-2.3c-.2 0-.4.2-.4.4s.2.4.4.4h2.3c.2 0 .4-.2.4-.4s-.2-.4-.4-.4z"/><g><path class="st1" d="M38.7 110.7h-3.2c-.2 0-.4.2-.4.4s.2.4.4.4h3.2c.2 0 .4-.2.4-.4s-.2-.4-.4-.4z"/><path class="st1" d="M37 108.9c-.2 0-.4.2-.4.4v3.5c0 .2.2.4.4.4s.4-.2.4-.4v-3.5c0-.2-.2-.4-.4-.4z"/></g></g><g><path class="st2" d="M58.2 75.2H35.4c-1.8 0-3.3 1.5-3.3 3.3v.8c0 1.8 1.5 3.3 3.3 3.3h22.8c1.8 0 3.3-1.5 3.3-3.3v-.8c0-1.8-1.5-3.3-3.3-3.3zM71.8 89.3H36.3c-1.8 0-3.3 1.5-3.3 3.3v.8c0 1.8 1.5 3.3 3.3 3.3h35.5c1.8 0 3.3-1.5 3.3-3.3v-.8c-.1-1.8-1.5-3.3-3.3-3.3zM85.4 89.3h-6.1c-1.8 0-3.3 1.5-3.3 3.3v.8c0 1.8 1.5 3.3 3.3 3.3h6.1c1.8 0 3.3-1.5 3.3-3.3v-.8c0-1.8-1.5-3.3-3.3-3.3z"/><path class="st2" d="M53.9 82.3H36.4c1.8 0 3.2 1.4 3.2 3.2v.8c0 1.8-1.4 3.2-3.2 3.2H54c-1.8 0-3.2-1.4-3.2-3.2v-.8c-.1-1.8 1.4-3.2 3.1-3.2z"/></g><g><path class="st2" d="M114 51.2H90.2c-1.8 0-3.3 1.5-3.3 3.3v1c0 1.8 1.5 3.3 3.3 3.3H114c1.8 0 3.3-1.5 3.3-3.3v-1c0-1.8-1.5-3.3-3.3-3.3zM113.1 36.6H76.2c-1.8 0-3.3 1.5-3.3 3.3v1c0 1.8 1.5 3.3 3.3 3.3h36.9c1.8 0 3.3-1.5 3.3-3.3v-1c0-1.8-1.5-3.3-3.3-3.3zM68.6 36.6h-6.5c-1.8 0-3.3 1.5-3.3 3.3v1c0 1.8 1.5 3.3 3.3 3.3h6.5c1.8 0 3.3-1.5 3.3-3.3v-1c0-1.8-1.5-3.3-3.3-3.3z"/><path class="st2" d="M112.9 43.9H94.7c1.8 0 3.3 1.5 3.3 3.3v.9c0 1.8-1.5 3.3-3.3 3.3h18.2c-1.8 0-3.3-1.5-3.3-3.3v-.9c0-1.8 1.5-3.3 3.3-3.3z"/></g><g><path class="st2" d="M94.2 119.1H70.4c-1.8 0-3.3 1.5-3.3 3.3v1c0 1.8 1.5 3.3 3.3 3.3h23.8c1.8 0 3.3-1.5 3.3-3.3v-1c-.1-1.8-1.5-3.3-3.3-3.3zM108.2 133.7H71.3c-1.8 0-3.3 1.5-3.3 3.3v1c0 1.8 1.5 3.3 3.3 3.3h36.9c1.8 0 3.3-1.5 3.3-3.3v-1c-.1-1.8-1.6-3.3-3.3-3.3zM122.3 133.7h-6.5c-1.8 0-3.3 1.5-3.3 3.3v1c0 1.8 1.5 3.3 3.3 3.3h6.5c1.8 0 3.3-1.5 3.3-3.3v-1c-.1-1.8-1.5-3.3-3.3-3.3z"/><path class="st2" d="M89.6 126.4H71.5c1.8 0 3.3 1.5 3.3 3.3v.9c0 1.8-1.5 3.3-3.3 3.3h18.2c-1.8 0-3.3-1.5-3.3-3.3v-.9c-.1-1.8 1.4-3.3 3.2-3.3z"/></g><g><path class="st2" d="M145 102.8h-23.8c-1.8 0-3.3 1.5-3.3 3.3v1c0 1.8 1.5 3.3 3.3 3.3H145c1.8 0 3.3-1.5 3.3-3.3v-1c-.1-1.8-1.5-3.3-3.3-3.3zM144.1 88.2h-36.9c-1.8 0-3.3 1.5-3.3 3.3v1c0 1.8 1.5 3.3 3.3 3.3h36.9c1.8 0 3.3-1.5 3.3-3.3v-1c-.1-1.8-1.5-3.3-3.3-3.3zM99.6 88.2h-6.5c-1.8 0-3.3 1.5-3.3 3.3v1c0 1.8 1.5 3.3 3.3 3.3h6.5c1.8 0 3.3-1.5 3.3-3.3v-1c-.1-1.8-1.5-3.3-3.3-3.3z"/><path class="st2" d="M143.9 95.5h-18.2c1.8 0 3.3 1.5 3.3 3.3v.9c0 1.8-1.5 3.3-3.3 3.3h18.2c-1.8 0-3.3-1.5-3.3-3.3v-.9c0-1.8 1.4-3.3 3.3-3.3z"/></g><g><path class="st3" d="M123.3 75.4c-.3-1.4-1.7-2.2-3.1-1.8L50 91.3c-1.4.3-2.2 1.7-1.8 3.1l12.1 48c.3 1.4 1.7 2.2 3.1 1.8l70.2-17.8c1.4-.3 2.2-1.7 1.8-3.1l-12.1-47.9z"/><path class="st3" d="M120.2 73.5 50 91.3c-1.4.3-2.2 1.7-1.8 3.1l2.2 8.6 75.3-18.5-2.3-9.1c-.4-1.4-1.8-2.2-3.2-1.9z"/><path class="st4" d="M105.5 44.9 96.3 49l13 5.7 9.1-4.1v-.1zM58.3 66l13 5.8 9.2-4.2-12.9-5.7zM39.3 74.6l13 5.7 9.2-4.2-12.9-5.7zM77.3 57.5l13 5.7 9.2-4.1-13-5.7z"/><path class="st3" d="m105.5 44.9 12.9 5.6-4.3-9.5zM86.5 53.4l13 5.7 9.8-4.4-13-5.7zM67.6 61.9l12.9 5.7 9.8-4.4-13-5.7zM48.6 70.4l12.9 5.7 9.8-4.3-13-5.8zM39.3 74.6l4.3 9.6 8.7-3.9-13-5.7z"/><path class="st4" d="M46.1 94.3v.1l9.7-2.4 6.6-12.6-9.8 2.5zM86.4 84.2l9.8-2.5 6.6-12.5-9.8 2.5zM106.6 79.1l9.8-2.5 6.6-12.5-9.8 2.5zM66.2 89.3l9.8-2.5 6.6-12.5-9.8 2.5z"/><path class="st3" d="m55.8 92 10.4-2.7 6.6-12.5-10.4 2.6zM76 86.8l10.4-2.6L93 71.7l-10.4 2.6zM96.2 81.7l10.4-2.6 6.6-12.5-10.4 2.6zM123 64.1l-6.6 12.5 9.2-2.3-2.6-10.2z"/><g><path class="st3" d="M49 72.6c-1.1-1.1-3.2-1.7-4.6-1.2l-3 1c-1.4.5-2.3 2.1-1.9 3.7L43.8 93c.4 1.6 1.9 2.6 3.4 2.2l15.4-3.9c1.5-.4 2.3-2 1.9-3.6L49 72.6z"/></g><g><path transform="rotate(-14.264 84.972 87.2)" class="st4" d="M56.5 86.9h56.9v.5H56.5z"/></g><g><path transform="rotate(-14.241 72.998 100.66)" class="st4" d="M59.4 100.4h27.1v.5H59.4z"/></g><g><path transform="rotate(-14.17 75.771 111.649)" class="st4" d="M62.2 111.4h27.1v.5H62.2z"/></g><g><path transform="rotate(-14.199 62.396 98.052)" class="st4" d="M58.5 95.3h7.8v5.5h-7.8z"/></g><g><path transform="rotate(-14.199 72.333 95.537)" class="st4" d="M68.4 92.8h7.8v5.5h-7.8z"/></g><g><path transform="rotate(-14.193 82.294 93.044)" class="st4" d="M78.4 90.3h7.8v5.5h-7.8z"/></g><g><path transform="rotate(-14.211 64.881 107.897)" class="st4" d="M61 105.2h7.8v5.5H61z"/></g><g><path transform="rotate(-14.193 74.849 105.418)" class="st4" d="M70.9 102.6h7.8v5.5h-7.8z"/></g><g><path transform="rotate(-14.193 84.755 102.87)" class="st4" d="M80.9 100.1h7.8v5.5h-7.8z"/></g><g id="XMLID_600_"><path class="st4" d="M133.8 52.1c.6-3 2.1-5.8 4.4-8.1-2.4 2.3-5.3 3.6-8.3 4.1-1.7-2.5-2.7-5.6-2.6-8.9-.1 3.3-1.1 6.3-2.9 8.8-3-.6-5.8-2.1-8.1-4.4 2.3 2.4 3.6 5.3 4.1 8.3-2.5 1.7-5.6 2.7-8.9 2.6 3.3.1 6.3 1.1 8.8 2.9-.6 3-2.1 5.8-4.4 8.1 2.4-2.3 5.3-3.6 8.3-4.1 1.7 2.5 2.7 5.6 2.6 8.9.1-3.3 1.1-6.3 2.9-8.8 3 .6 5.8 2.1 8.1 4.4-2.3-2.4-3.6-5.3-4.1-8.3 2.5-1.7 5.6-2.7 8.9-2.6-3.4-.1-6.4-1.1-8.8-2.9z"/></g></g><g><path class="st1" d="M99.6 146.4h-12c-.2 0-.4.2-.4.4s.2.4.4.4h12c.2 0 .4-.2.4-.4s-.2-.4-.4-.4zM90.6 142.7h-1.9c-.2 0-.4.2-.4.4s.2.4.4.4h1.9c.2 0 .4-.2.4-.4 0-.3-.2-.4-.4-.4zM101.5 142.7h-7.3c-.2 0-.4.2-.4.4s.2.4.4.4h7.3c.2 0 .4-.2.4-.4 0-.3-.2-.4-.4-.4zM94.1 140.2h-8.8c-.2 0-.4.2-.4.4s.2.4.4.4h8.8c.2 0 .4-.2.4-.4s-.2-.4-.4-.4z"/></g></svg>